<svg width="182" height="57" viewBox="0 0 182 57" fill="none" xmlns="http://www.w3.org/2000/svg">
<g filter="url(#filter0_d_221_3)">
<path d="M14.6796 23.02C15.1476 22.12 15.5796 21.22 16.0476 20.284C17.5956 17.368 19.3236 14.524 21.2676 11.86C22.7796 9.772 24.4356 7.828 26.4156 6.172C27.1716 5.56 27.9276 5.02 28.7916 4.552C30.4116 3.688 32.1396 3.364 33.9756 3.688C34.4436 3.796 34.9116 3.94 35.3436 4.156C36.1356 4.552 36.7116 5.128 37.0716 5.956C37.2876 6.496 37.4316 7.036 37.5036 7.612C37.7556 9.196 37.5756 10.744 37.3956 12.292C37.1076 14.848 36.5676 17.332 35.7756 19.744C35.2716 21.256 34.6596 22.732 33.7596 24.1C32.4276 26.116 30.5916 27.376 28.2156 27.844C26.9196 28.06 25.6236 28.096 24.2916 28.024C24.1476 27.988 24.0036 27.988 23.8956 27.988C23.7876 28.024 23.7516 28.096 23.7876 28.168C23.8236 28.204 23.8596 28.24 23.8956 28.276C25.1556 29.824 26.0196 31.588 26.8116 33.352C27.5676 35.152 28.2876 36.916 29.1516 38.644C29.6196 39.544 30.2316 40.264 31.1316 40.732C32.5356 41.488 33.9756 42.1 35.5956 42.28C36.4596 42.388 37.2876 42.316 38.1516 42.172C38.7636 42.028 39.4116 42.028 40.0596 42.172C40.2396 42.208 40.4556 42.28 40.6356 42.424C40.9236 42.676 40.9596 42.964 40.7436 43.288C40.5276 43.576 40.2396 43.756 39.9156 43.864C39.4116 44.08 38.8716 44.188 38.3676 44.296C36.5676 44.584 34.7676 44.368 33.0396 43.972C30.5196 43.36 28.2156 42.208 26.1636 40.66C25.0116 39.796 24.1116 38.68 23.2836 37.492C22.4916 36.304 21.8436 35.008 21.1956 33.748C20.6196 32.56 20.0796 31.408 19.4316 30.256C18.8556 29.212 18.1716 28.24 17.2716 27.448C17.1636 27.376 17.0916 27.304 16.9836 27.232C16.6956 27.052 16.5156 27.088 16.3716 27.412C15.4716 29.428 14.5716 31.408 13.6356 33.424C12.6996 35.404 11.8356 37.42 10.7916 39.364C10.6116 39.76 10.3956 40.12 10.1436 40.48C9.67556 41.2 9.02756 41.668 8.19956 41.812C7.44356 41.956 6.68756 41.92 5.96756 41.596C5.46356 41.38 5.17556 40.984 5.03156 40.444C4.88756 39.724 4.95956 39.04 5.06756 38.356C5.35556 35.8 5.89556 33.316 6.54356 30.796C7.47956 27.232 8.48756 23.668 9.67556 20.14C10.2156 18.592 10.8636 17.08 11.4396 15.532C12.1236 13.66 12.7716 11.788 13.4556 9.916C13.9236 8.764 14.3916 7.612 14.8236 6.424C14.9316 6.172 15.0396 5.884 15.1476 5.596C15.2556 5.272 15.4716 4.984 15.7956 4.84C16.8036 4.336 17.8476 4.264 18.8916 4.732C19.4676 4.984 19.7196 5.488 19.7196 6.1C19.6836 7.036 19.5396 7.936 19.3236 8.836C18.7116 11.428 17.8116 13.912 16.9116 16.396C16.1916 18.484 15.3996 20.572 14.7156 22.66C14.6796 22.768 14.6436 22.912 14.6076 23.02C14.6436 23.02 14.6436 23.02 14.6796 23.02ZM19.7196 20.896C19.8996 20.86 20.0796 20.788 20.2956 20.752C21.1236 20.608 21.9156 21.076 22.1676 21.904C22.2396 22.228 22.2396 22.552 22.2756 22.876C22.2756 23.524 22.5636 23.956 23.0676 24.28C23.6076 24.604 24.1836 24.748 24.7596 24.856C25.4076 24.964 25.9116 24.82 26.4156 24.388C27.1716 23.74 27.8556 22.948 28.3956 22.084C29.1516 20.788 29.6556 19.42 30.0876 17.98C30.8076 15.496 31.2396 12.976 31.5636 10.42C31.6716 9.556 31.7076 8.692 31.7076 7.828C31.7076 7.36 31.6356 6.928 31.5276 6.496C31.4556 6.28 31.3836 6.244 31.1676 6.352C31.0596 6.388 30.9516 6.46 30.8436 6.532C30.2676 6.856 29.6916 7.252 29.1876 7.684C27.7116 8.908 26.4516 10.348 25.2996 11.86C23.1396 14.596 21.4116 17.584 19.7556 20.644C19.7196 20.716 19.6476 20.788 19.7196 20.896ZM41.8092 29.788C41.7732 30.436 41.8812 31.12 42.1332 31.804C42.2052 32.092 42.3492 32.344 42.4932 32.596C42.7812 32.992 43.1052 33.172 43.6092 33.1C44.5092 32.956 45.3732 32.632 46.2012 32.272C48.1092 31.444 49.8372 30.4 51.4572 29.104C53.0052 27.88 54.5892 26.692 56.1012 25.432C56.4612 25.144 56.8572 24.892 57.3612 24.856C57.5052 24.82 57.6492 24.82 57.7932 24.856C58.1172 25 58.2252 25.252 58.0812 25.576C58.0092 25.756 57.8652 25.936 57.7212 26.08C56.8932 26.908 56.0292 27.628 55.1292 28.348C52.9332 30.076 50.7012 31.732 48.3612 33.28C47.1012 34.18 45.6972 34.756 44.1492 35.044C42.3492 35.404 40.6572 35.188 39.0732 34.216C38.0292 33.568 37.2732 32.668 36.8052 31.516C36.4812 30.652 36.3012 29.752 36.3012 28.816C36.3012 27.952 36.4092 27.088 36.6612 26.26C37.3092 23.956 38.4252 21.94 40.0092 20.176C41.0172 19.06 42.1692 18.124 43.5012 17.404C44.6532 16.792 45.8772 16.396 47.2092 16.252C48.2172 16.144 49.2252 16.18 50.1972 16.432C50.9532 16.612 51.6732 16.828 52.2492 17.368C52.9332 17.944 53.3652 18.664 53.3652 19.6C53.3652 20.14 53.2932 20.608 53.1132 21.112C52.7892 22.228 52.2852 23.236 51.6012 24.136C50.0172 26.188 48.0012 27.376 45.4452 27.664C44.4012 27.772 43.3212 27.844 42.2772 27.7C42.0612 27.664 41.9892 27.772 41.9532 27.952C41.8812 28.528 41.8092 29.104 41.8092 29.788ZM48.3252 19.924C48.2892 19.78 48.2532 19.6 48.2532 19.456C48.2172 19.276 48.1092 19.24 48.0012 19.312C47.8932 19.312 47.8212 19.348 47.7492 19.384C47.0652 19.744 46.4532 20.176 45.9132 20.68C44.9412 21.616 44.1492 22.696 43.5012 23.848C43.2132 24.352 42.9612 24.856 42.7812 25.36C42.6732 25.576 42.7092 25.648 42.9612 25.612C43.2492 25.576 43.5372 25.504 43.8252 25.468C44.6172 25.324 45.3012 25 45.8772 24.424C46.8132 23.524 47.6052 22.48 48.0732 21.256C48.2172 20.824 48.2532 20.392 48.3252 19.924ZM52.0664 42.496C52.0304 41.164 52.2464 39.868 52.4984 38.536C52.8944 36.196 53.5784 33.928 54.3704 31.696C55.1264 29.5 55.9184 27.268 56.8184 25.072C57.4664 23.488 58.2224 21.904 58.9424 20.32C59.5904 18.844 60.3104 17.368 61.0304 15.892C61.5344 14.92 62.0744 13.984 62.6504 13.084C63.0824 12.4 63.7304 12.004 64.4864 11.86C65.1344 11.752 65.7824 11.752 66.3944 11.932C66.6464 12.004 66.8984 12.112 67.1144 12.256C67.5464 12.544 67.6904 12.904 67.5464 13.444C67.4024 14.02 67.1864 14.596 66.9704 15.172C66.1784 17.116 65.3864 19.024 64.5944 20.968C63.8384 22.84 63.0824 24.712 62.3264 26.584C62.0744 27.232 61.8224 27.916 61.5704 28.6C61.5344 28.636 61.5344 28.708 61.4984 28.78C61.4624 28.96 61.5344 28.996 61.7144 28.96C61.8944 28.924 62.0384 28.888 62.2184 28.816C63.5144 28.42 64.6664 27.808 65.8184 27.124C66.6104 26.656 67.3664 26.152 68.0504 25.54C68.4464 25.216 68.8424 24.928 69.3824 24.82C69.6704 24.784 69.9944 24.748 70.1744 25.036C70.3904 25.324 70.2464 25.612 70.0664 25.9C69.5984 26.548 68.9864 27.016 68.3384 27.484C67.2944 28.24 66.1784 28.816 65.0624 29.428C64.3424 29.788 63.6224 30.184 62.8304 30.436C62.5424 30.544 62.5064 30.58 62.7584 30.832C63.2624 31.336 63.5864 31.948 63.8024 32.632C64.1984 33.676 64.3424 34.756 64.4144 35.908C64.5224 37.6 64.2344 39.292 63.8024 40.948C63.5864 41.812 63.4064 42.712 63.0104 43.576C62.3624 44.836 61.6424 46.024 60.6344 47.032C59.8784 47.716 59.0504 48.256 58.0424 48.4C56.3144 48.652 54.6944 48.328 53.4344 46.996C52.6784 46.204 52.3544 45.196 52.1384 44.152C52.0664 43.612 52.0664 43.036 52.0664 42.496ZM60.2744 32.56C60.1304 32.668 60.1304 32.812 60.0944 32.92C59.7344 34 59.3744 35.044 59.0504 36.124C58.2944 38.644 57.6104 41.2 57.3584 43.864C57.2864 44.44 57.3944 45.016 57.5024 45.592C57.5744 45.88 57.6464 45.88 57.8264 45.7C58.4384 45.124 58.9424 44.44 59.3024 43.684C59.6984 42.712 60.0584 41.74 60.3464 40.732C60.6704 39.544 60.8144 38.356 60.9944 37.168C61.1744 35.8 60.9944 34.504 60.5624 33.208C60.4904 32.992 60.4184 32.74 60.2744 32.56ZM83.5667 32.416C83.7467 32.344 83.8547 32.236 83.9267 32.128C85.4027 30.688 86.7707 29.14 88.2107 27.664C88.8587 26.98 89.4707 26.296 90.1907 25.72C90.5147 25.432 90.8747 25.216 91.2707 25.108C91.3787 25.108 91.4507 25.072 91.5587 25.072C91.9547 25.036 92.2067 25.324 92.0987 25.72C92.0267 25.936 91.9187 26.116 91.7747 26.296C91.5227 26.584 91.2707 26.908 90.9827 27.232C89.2907 29.104 87.5987 30.976 85.7987 32.776C85.2227 33.316 84.7187 33.928 84.0707 34.468C83.5667 34.864 82.9907 35.152 82.3067 35.224C81.1187 35.368 79.9667 34.792 79.3907 33.748C79.0307 33.1 78.8867 32.416 78.8507 31.696C78.8147 31.084 78.8867 30.472 78.9587 29.86C78.9947 29.752 79.0307 29.608 78.9587 29.5C78.8147 29.5 78.7787 29.608 78.7067 29.716C78.0947 30.364 77.5187 31.048 76.9427 31.732C75.9707 32.812 74.9627 33.82 73.7387 34.612C72.6227 35.332 71.3987 35.44 70.1387 35.08C69.1667 34.792 68.5187 34.144 68.1587 33.208C67.9067 32.488 67.7987 31.768 67.6907 31.048C67.5827 29.932 67.7627 28.888 67.9787 27.844C68.3747 25.936 69.0227 24.1 69.7427 22.3C70.3187 20.932 70.8587 19.564 71.3987 18.196C71.4707 17.98 71.6147 17.8 71.6867 17.584C72.1187 16.576 72.9107 16.072 73.9547 15.928C74.5667 15.856 75.1427 15.856 75.7187 15.964C76.0427 16.036 76.3667 16.144 76.6547 16.324C77.3027 16.648 77.5187 17.152 77.3747 17.836C77.1587 18.736 76.8707 19.636 76.5467 20.5C75.9347 22.048 75.2867 23.524 74.7107 25.072C73.9907 27.016 73.3427 28.96 72.9467 30.976C72.8747 31.264 72.8027 31.552 72.8027 31.876C72.9827 31.84 73.0547 31.732 73.1267 31.624C75.1067 29.644 76.8707 27.52 78.7067 25.396C79.3907 24.64 80.0747 23.848 80.7587 23.092C80.9387 22.876 81.0827 22.66 81.1547 22.444C81.7667 20.752 82.5227 19.168 83.2427 17.584C83.7107 16.54 84.5027 16.036 85.5827 15.892C86.3747 15.784 87.1307 15.856 87.8867 16.108C88.0307 16.18 88.2107 16.252 88.3547 16.36C88.9307 16.72 89.0747 17.08 88.8947 17.728C88.6787 18.664 88.3907 19.6 87.9947 20.5C86.8427 23.272 85.6907 26.044 84.6827 28.852C84.2867 29.896 83.9627 30.94 83.6747 32.02C83.6387 32.128 83.6027 32.236 83.5667 32.416ZM95.2116 29.788C95.1756 30.436 95.2836 31.12 95.5356 31.804C95.6076 32.092 95.7516 32.344 95.8956 32.596C96.1836 32.992 96.5076 33.172 97.0116 33.1C97.9116 32.956 98.7756 32.632 99.6036 32.272C101.512 31.444 103.24 30.4 104.86 29.104C106.408 27.88 107.992 26.692 109.504 25.432C109.864 25.144 110.26 24.892 110.764 24.856C110.908 24.82 111.052 24.82 111.196 24.856C111.52 25 111.628 25.252 111.484 25.576C111.412 25.756 111.268 25.936 111.124 26.08C110.296 26.908 109.432 27.628 108.532 28.348C106.336 30.076 104.104 31.732 101.764 33.28C100.504 34.18 99.0996 34.756 97.5516 35.044C95.7516 35.404 94.0596 35.188 92.4756 34.216C91.4316 33.568 90.6756 32.668 90.2076 31.516C89.8836 30.652 89.7036 29.752 89.7036 28.816C89.7036 27.952 89.8116 27.088 90.0636 26.26C90.7116 23.956 91.8276 21.94 93.4116 20.176C94.4196 19.06 95.5716 18.124 96.9036 17.404C98.0556 16.792 99.2796 16.396 100.612 16.252C101.62 16.144 102.628 16.18 103.6 16.432C104.356 16.612 105.076 16.828 105.652 17.368C106.336 17.944 106.768 18.664 106.768 19.6C106.768 20.14 106.696 20.608 106.516 21.112C106.192 22.228 105.688 23.236 105.004 24.136C103.42 26.188 101.404 27.376 98.8476 27.664C97.8036 27.772 96.7236 27.844 95.6796 27.7C95.4636 27.664 95.3916 27.772 95.3556 27.952C95.2836 28.528 95.2116 29.104 95.2116 29.788ZM101.728 19.924C101.692 19.78 101.656 19.6 101.656 19.456C101.62 19.276 101.512 19.24 101.404 19.312C101.296 19.312 101.224 19.348 101.152 19.384C100.468 19.744 99.8556 20.176 99.3156 20.68C98.3436 21.616 97.5516 22.696 96.9036 23.848C96.6156 24.352 96.3636 24.856 96.1836 25.36C96.0756 25.576 96.1116 25.648 96.3636 25.612C96.6516 25.576 96.9396 25.504 97.2276 25.468C98.0196 25.324 98.7036 25 99.2796 24.424C100.216 23.524 101.008 22.48 101.476 21.256C101.62 20.824 101.656 20.392 101.728 19.924ZM113.929 32.92C114.253 32.704 114.505 32.452 114.721 32.236C115.369 31.624 115.909 30.904 116.485 30.22C117.673 28.78 118.897 27.376 120.157 25.972C120.373 25.72 120.589 25.504 120.877 25.324C121.093 25.18 121.345 25.072 121.597 25.036C122.065 24.964 122.389 25.324 122.281 25.756C122.209 26.008 122.101 26.224 121.957 26.404C121.273 27.34 120.589 28.24 119.869 29.104C118.609 30.652 117.349 32.2 116.053 33.748C115.513 34.396 114.829 34.972 113.965 35.26C112.741 35.656 111.589 35.584 110.509 34.828C110.077 34.54 109.825 34.144 109.645 33.712C109.105 32.56 108.961 31.336 109.069 30.076C109.249 28.168 109.681 26.296 110.221 24.46C110.689 22.984 110.977 21.472 111.409 19.996C112.093 17.512 112.777 14.992 113.641 12.544C114.145 11.032 114.793 9.592 115.369 8.116C115.873 6.784 116.449 5.524 117.061 4.264C117.457 3.472 117.889 2.68 118.321 1.924C118.501 1.636 118.717 1.348 118.969 1.06C119.257 0.807998 119.545 0.591999 119.905 0.483998C120.733 0.231999 121.561 0.231999 122.353 0.519998C123.109 0.807998 123.433 1.312 123.325 2.104C123.253 2.572 123.109 3.04 122.965 3.472C122.533 4.948 121.921 6.316 121.345 7.684C120.409 9.952 119.581 12.22 118.825 14.488C117.565 18.304 116.341 22.12 115.189 25.972C114.721 27.448 114.325 28.96 114.109 30.472C114.001 31.12 113.965 31.768 113.929 32.38C113.893 32.56 113.893 32.704 113.929 32.92ZM125.235 29.788C125.199 30.436 125.307 31.12 125.559 31.804C125.631 32.092 125.775 32.344 125.919 32.596C126.207 32.992 126.531 33.172 127.035 33.1C127.935 32.956 128.799 32.632 129.627 32.272C131.535 31.444 133.263 30.4 134.883 29.104C136.431 27.88 138.015 26.692 139.527 25.432C139.887 25.144 140.283 24.892 140.787 24.856C140.931 24.82 141.075 24.82 141.219 24.856C141.543 25 141.651 25.252 141.507 25.576C141.435 25.756 141.291 25.936 141.147 26.08C140.319 26.908 139.455 27.628 138.555 28.348C136.359 30.076 134.127 31.732 131.787 33.28C130.527 34.18 129.123 34.756 127.575 35.044C125.775 35.404 124.083 35.188 122.499 34.216C121.455 33.568 120.699 32.668 120.231 31.516C119.907 30.652 119.727 29.752 119.727 28.816C119.727 27.952 119.835 27.088 120.087 26.26C120.735 23.956 121.851 21.94 123.435 20.176C124.443 19.06 125.595 18.124 126.927 17.404C128.079 16.792 129.303 16.396 130.635 16.252C131.643 16.144 132.651 16.18 133.623 16.432C134.379 16.612 135.099 16.828 135.675 17.368C136.359 17.944 136.791 18.664 136.791 19.6C136.791 20.14 136.719 20.608 136.539 21.112C136.215 22.228 135.711 23.236 135.027 24.136C133.443 26.188 131.427 27.376 128.871 27.664C127.827 27.772 126.747 27.844 125.703 27.7C125.487 27.664 125.415 27.772 125.379 27.952C125.307 28.528 125.235 29.104 125.235 29.788ZM131.751 19.924C131.715 19.78 131.679 19.6 131.679 19.456C131.643 19.276 131.535 19.24 131.427 19.312C131.319 19.312 131.247 19.348 131.175 19.384C130.491 19.744 129.879 20.176 129.339 20.68C128.367 21.616 127.575 22.696 126.927 23.848C126.639 24.352 126.387 24.856 126.207 25.36C126.099 25.576 126.135 25.648 126.387 25.612C126.675 25.576 126.963 25.504 127.251 25.468C128.043 25.324 128.727 25 129.303 24.424C130.239 23.524 131.031 22.48 131.499 21.256C131.643 20.824 131.679 20.392 131.751 19.924ZM148.02 18.52C148.344 18.376 148.596 18.232 148.848 18.088C150 17.476 151.224 17.044 152.556 17.008C154.068 16.936 155.508 17.26 156.624 18.376C157.416 19.132 157.776 20.14 157.632 21.22C157.452 22.552 156.732 23.632 155.832 24.532C155.688 24.676 155.544 24.784 155.436 24.892C154.248 25.9 152.952 25.972 151.584 25.468C151.332 25.396 151.116 25.252 150.972 25.036C150.684 24.712 150.684 24.424 150.936 24.064C151.008 23.956 151.08 23.884 151.152 23.812C151.548 23.416 151.764 22.912 151.836 22.372C151.98 21.724 152.088 21.076 152.124 20.392C152.124 20.248 152.124 20.104 152.088 19.96C152.052 19.816 151.98 19.78 151.836 19.816C151.62 19.924 151.404 20.032 151.188 20.14C150.504 20.5 149.856 20.896 149.208 21.4C148.272 22.12 147.372 22.876 146.436 23.632C146.22 23.812 146.076 24.064 145.968 24.316C145.176 26.512 144.24 28.636 143.412 31.156C142.944 32.812 142.548 33.568 142.224 34.324C141.792 35.296 141.036 35.692 140.028 35.692C139.56 35.656 139.092 35.656 138.66 35.476C138.516 35.44 138.336 35.368 138.192 35.296C137.544 34.936 137.292 34.432 137.508 33.676C137.868 32.452 138.444 30.364 138.804 29.14C139.488 26.476 140.28 24.172 141.108 21.904C141.54 20.644 142.008 19.384 142.584 18.16C142.764 17.8 142.944 17.44 143.196 17.152C143.484 16.756 143.844 16.54 144.276 16.396C145.284 16.144 146.22 16.216 147.156 16.648C147.336 16.756 147.516 16.864 147.66 17.008C147.912 17.26 148.056 17.548 148.056 17.908C148.02 18.088 147.984 18.268 148.02 18.52ZM166.489 16.468C167.713 16.432 168.901 16.72 169.981 17.404C170.845 17.944 171.385 18.736 171.565 19.744C171.673 20.32 171.673 20.932 171.529 21.544C171.169 23.164 170.269 24.388 168.757 25.144C167.929 25.54 167.065 25.54 166.201 25.36C165.949 25.324 165.733 25.216 165.517 25.072C165.085 24.748 165.013 24.352 165.373 23.956C165.661 23.668 165.877 23.344 166.093 22.984C166.453 22.48 166.633 21.904 166.705 21.292C166.813 20.644 166.633 20.032 166.381 19.456C166.309 19.276 166.201 19.276 166.057 19.348C165.481 19.636 165.013 20.068 164.617 20.572C163.861 21.544 163.429 22.66 163.249 23.848C162.997 25.468 163.393 26.98 164.005 28.456C164.401 29.284 164.797 30.112 165.229 30.94C165.373 31.3 165.409 31.3 165.769 31.084C168.253 29.68 170.665 28.204 173.149 26.764C173.689 26.44 174.229 26.116 174.769 25.792C175.129 25.576 175.525 25.432 175.957 25.324C176.173 25.252 176.425 25.252 176.641 25.288C177.073 25.36 177.217 25.684 176.965 26.044C176.821 26.26 176.605 26.44 176.389 26.584C175.489 27.196 174.589 27.736 173.689 28.312C171.457 29.716 169.189 30.976 166.921 32.308C166.741 32.416 166.561 32.56 166.345 32.668C166.165 32.776 166.129 32.92 166.237 33.136C166.453 33.64 166.633 34.18 166.813 34.72C167.137 35.764 167.281 36.844 167.317 37.96C167.353 40.372 165.733 42.46 163.645 43.252C161.629 44.008 159.613 43.792 157.705 42.892C156.877 42.496 156.229 41.848 155.833 40.984C155.437 40.192 155.473 39.4 155.869 38.608C156.265 37.888 156.769 37.312 157.345 36.772C158.461 35.728 159.721 34.864 160.981 33.964C161.269 33.748 161.269 33.748 161.089 33.424C160.441 32.2 159.829 30.904 159.181 29.644C158.461 28.204 157.993 26.692 157.813 25.108C157.597 23.452 158.029 21.976 158.857 20.608C160.261 18.34 162.349 17.152 164.833 16.612C165.121 16.54 165.373 16.504 165.661 16.468C165.949 16.432 166.201 16.468 166.489 16.468ZM162.745 38.32C162.781 37.924 162.745 37.6 162.673 37.24C162.565 36.772 162.421 36.268 162.205 35.836C162.169 35.656 162.097 35.62 161.953 35.728C161.881 35.8 161.809 35.836 161.737 35.872C160.909 36.52 160.153 37.276 159.433 38.032C159.181 38.284 159.001 38.572 158.857 38.896C158.749 39.112 158.641 39.328 158.641 39.58C158.533 40.588 159.433 41.704 160.765 41.704C160.909 41.704 161.089 41.632 161.197 41.524C161.881 40.984 162.493 40.372 162.637 39.436C162.709 39.076 162.781 38.68 162.745 38.32Z" fill="black"/>
</g>
<defs>
<filter id="filter0_d_221_3" x="0.887573" y="0.231995" width="180.329" height="56.42" filterUnits="userSpaceOnUse" color-interpolation-filters="sRGB">
<feFlood flood-opacity="0" result="BackgroundImageFix"/>
<feColorMatrix in="SourceAlpha" type="matrix" values="0 0 0 0 0 0 0 0 0 0 0 0 0 0 0 0 0 0 127 0" result="hardAlpha"/>
<feOffset dy="4"/>
<feGaussianBlur stdDeviation="2"/>
<feComposite in2="hardAlpha" operator="out"/>
<feColorMatrix type="matrix" values="0 0 0 0 0 0 0 0 0 0 0 0 0 0 0 0 0 0 0.25 0"/>
<feBlend mode="normal" in2="BackgroundImageFix" result="effect1_dropShadow_221_3"/>
<feBlend mode="normal" in="SourceGraphic" in2="effect1_dropShadow_221_3" result="shape"/>
</filter>
</defs>
</svg>
